<svg width="67" height="43" viewBox="0 0 67 43" fill="none" xmlns="http://www.w3.org/2000/svg">
<path fill-rule="evenodd" clip-rule="evenodd" d="M3.89594e-05 21.5C3.89594e-05 22.1335 0.251688 22.741 0.699628 23.189C1.14757 23.6369 1.75511 23.8886 2.38859 23.8886L58.725 23.8886L43.6914 38.9173C43.2429 39.3658 42.991 39.9741 42.991 40.6084C42.991 41.2427 43.2429 41.851 43.6914 42.2995C44.14 42.748 44.7483 43 45.3825 43C46.0168 43 46.6251 42.748 47.0736 42.2995L66.1821 23.1911C66.4045 22.9692 66.581 22.7056 66.7014 22.4155C66.8218 22.1253 66.8838 21.8142 66.8838 21.5C66.8838 21.1858 66.8218 20.8747 66.7014 20.5845C66.581 20.2944 66.4045 20.0308 66.1821 19.8089L47.0736 0.700474C46.8516 0.478396 46.5879 0.302235 46.2978 0.182048C46.0076 0.06186 45.6966 0 45.3825 0C44.7483 0 44.14 0.251968 43.6914 0.700474C43.2429 1.14898 42.991 1.75729 42.991 2.39157C42.991 3.02586 43.2429 3.63416 43.6914 4.08267L58.725 19.1114L2.38859 19.1114C1.75511 19.1114 1.14757 19.3631 0.699628 19.811C0.251688 20.259 3.89594e-05 20.8665 3.89594e-05 21.5Z" fill="#4ADE80"/>
</svg>
