<svg width="121" height="121" viewBox="0 0 121 121" fill="none" xmlns="http://www.w3.org/2000/svg">
<path opacity="0.9" d="M60.25 0.25C27.1177 0.25 0.25 27.1177 0.25 60.25C0.25 93.3823 27.1177 120.25 60.25 120.25V105.253C51.351 105.252 42.6521 102.612 35.2534 97.6672C27.8546 92.7224 22.0882 85.6948 18.6832 77.4729C15.2783 69.251 14.3877 60.2042 16.1241 51.4762C17.8605 42.7482 22.146 34.7311 28.4385 28.4385C34.7311 22.146 42.7482 17.8605 51.4762 16.1241C60.2042 14.3877 69.251 15.2783 77.4729 18.6832C85.6948 22.0882 92.7224 27.8546 97.6672 35.2534C102.612 42.6521 105.252 51.351 105.253 60.25H120.25C120.25 27.1177 93.3823 0.25 60.25 0.25Z" fill="white"/>
</svg>
