<svg width="1175" height="306" viewBox="0 0 1175 306" fill="none" xmlns="http://www.w3.org/2000/svg">
<path d="M0 4.5V75.5H63.5V305.5H154.5V75.5H216.5V4.5H0Z" fill="#7195B6"/>
<path d="M282.5 4.5V305.5H498.5V235H374V76.5H498.5V3.5L282.5 4.5Z" fill="#7195B6"/>
<path d="M380.5 98V170.5H498.5V98H380.5Z" fill="#7195B6"/>
<path d="M767.5 3H619.5C619.5 3 610.206 4.59713 604.5 6.5C598.199 8.60108 594.667 10.0356 589 13.5C585.068 15.9037 583.003 17.5053 579.5 20.5C575.722 23.73 573.616 25.6272 570.5 29.5C567.58 33.1291 566.208 35.3988 564 39.5C562.468 42.346 561.759 44.0233 560.5 47C558.719 51.2097 557.624 53.5695 556.5 58C555.671 61.2672 555.39 63.1519 555 66.5C554.232 73.0944 554.337 76.8943 555 83.5C555.375 87.2372 555.486 89.3835 556.5 93C557.587 96.876 558.49 99.0124 560.5 102.5C562.45 105.883 566.5 110.5 566.5 110.5L673 221.5C673 221.5 673.69 222.368 674 223C675.031 225.104 674 229 674 229L673 230.5L672 231.5C672 231.5 671.17 232.513 670.5 233C669.794 233.514 668.5 234 668.5 234L667 234.5H554.775H554L555 305.5V306H708.5C708.5 306 715.329 304.56 719.5 303C723.345 301.562 729 298.5 729 298.5C729 298.5 736.669 294.432 741 291C744.14 288.512 745.797 286.958 748.5 284C751.793 280.396 753.437 278.154 756 274C758.522 269.913 759.62 267.42 761.5 263C763.602 258.056 764.692 255.211 766 250C766.727 247.103 767.098 245.46 767.5 242.5C768.367 236.115 768.788 232.314 767.5 226C766.846 222.793 766.007 221.115 765 218C764.051 215.062 763.792 213.304 762.5 210.5C761.365 208.036 759 204.5 759 204.5L756 199L649 88.5C649 88.5 648.238 87.0243 648 86C647.647 84.4783 648 82 648 82C648 82 648.375 80.3455 649 79.5C649.837 78.3678 650.828 78.281 652 77.5C652.586 77.1095 653.5 76.5 653.5 76.5H767.5V3Z" fill="#7195B6"/>
<path d="M823.5 3V306H915V3.5L823.5 3Z" fill="#7195B6"/>
<path d="M1174 0H1026C1026 0 1016.71 1.59713 1011 3.5C1004.7 5.60108 1001.17 7.0356 995.5 10.5C991.568 12.9037 989.503 14.5053 986 17.5C982.222 20.73 980.116 22.6272 977 26.5C974.08 30.1291 972.708 32.3988 970.5 36.5C968.968 39.346 968.259 41.0233 967 44C965.219 48.2097 964.124 50.5695 963 55C962.171 58.2672 961.89 60.1519 961.5 63.5C960.732 70.0944 960.837 73.8943 961.5 80.5C961.875 84.2372 961.986 86.3835 963 90C964.087 93.876 964.99 96.0124 967 99.5C968.95 102.883 973 107.5 973 107.5L1079.5 218.5C1079.5 218.5 1080.19 219.368 1080.5 220C1081.53 222.104 1080.5 226 1080.5 226L1079.5 227.5L1078.5 228.5C1078.5 228.5 1077.67 229.513 1077 230C1076.29 230.514 1075 231 1075 231L1073.5 231.5H961.275H960.5L961.5 302.5V303H1115C1115 303 1121.83 301.56 1126 300C1129.85 298.562 1135.5 295.5 1135.5 295.5C1135.5 295.5 1143.17 291.432 1147.5 288C1150.64 285.512 1152.3 283.958 1155 281C1158.29 277.396 1159.94 275.154 1162.5 271C1165.02 266.913 1166.12 264.42 1168 260C1170.1 255.056 1171.19 252.211 1172.5 247C1173.23 244.103 1173.6 242.46 1174 239.5C1174.87 233.115 1175.29 229.314 1174 223C1173.35 219.793 1172.51 218.115 1171.5 215C1170.55 212.062 1170.29 210.304 1169 207.5C1167.87 205.036 1165.5 201.5 1165.5 201.5L1162.5 196L1055.5 85.5C1055.5 85.5 1054.74 84.0243 1054.5 83C1054.15 81.4783 1054.5 79 1054.5 79C1054.5 79 1054.87 77.3455 1055.5 76.5C1056.34 75.3678 1057.33 75.281 1058.5 74.5C1059.09 74.1095 1060 73.5 1060 73.5H1174V0Z" fill="#7195B6"/>
</svg>
